HIERARCHY
ROOT Hips
{
	OFFSET 0.000000 88.474243 0.000000
	CHANNELS 6 Xposition Yposition Zposition Zrotation Yrotation Xrotation 
	JOINT Hips_Spine
	{
		OFFSET 0.000000 0.000000 0.000000
		CHANNELS 3 Zrotation Yrotation Xrotation
		JOINT Spine
		{
			OFFSET 0.005100 8.711998 -0.691000
			CHANNELS 3 Zrotation Yrotation Xrotation
			JOINT Spine1
			{
				OFFSET -0.009200 8.660301 -1.275000
				CHANNELS 3 Zrotation Yrotation Xrotation
				JOINT Spine2
				{
					OFFSET 0.006300 9.852501 -1.857000
					CHANNELS 3 Zrotation Yrotation Xrotation
					JOINT Spine2_Neck
					{
						OFFSET 0.000000 0.000000 0.000000
						CHANNELS 3 Zrotation Yrotation Xrotation
						JOINT Neck
						{
							OFFSET 0.016300 11.420799 -0.263300
							CHANNELS 3 Zrotation Yrotation Xrotation
							End Site #name: Head
							{
								OFFSET -0.019200 9.262405 2.362500
							}
						}
					}
					JOINT Spine2_LeftShoulder
					{
						OFFSET 0.000000 0.000000 0.000000
						CHANNELS 3 Zrotation Yrotation Xrotation
						JOINT LeftShoulder
						{
							OFFSET 5.616900 6.732201 -0.345700
							CHANNELS 3 Zrotation Yrotation Xrotation
							JOINT LeftArm
							{
								OFFSET 10.664888 -0.183372 -2.440700
								CHANNELS 3 Zrotation Yrotation Xrotation
								JOINT LeftForeArm
								{
									OFFSET 27.459126 0.000000 0.000000
									CHANNELS 3 Zrotation Yrotation Xrotation
									End Site #name: LeftHand
									{
										OFFSET 21.306858 0.000000 0.000000
									}
								}
							}
						}
					}
					JOINT Spine2_RightShoulder
					{
						OFFSET 0.000000 0.000000 0.000000
						CHANNELS 3 Zrotation Yrotation Xrotation
						JOINT RightShoulder
						{
							OFFSET -5.580300 6.737503 -0.344400
							CHANNELS 3 Zrotation Yrotation Xrotation
							JOINT RightArm
							{
								OFFSET -10.679335 -0.188484 -2.383900
								CHANNELS 3 Zrotation Yrotation Xrotation
								JOINT RightForeArm
								{
									OFFSET -27.503529 0.000000 0.000000
									CHANNELS 3 Zrotation Yrotation Xrotation
									End Site #name: RightHand
									{
										OFFSET -21.306808 0.000000 0.000000
									}
								}
							}
						}
					}
				}
			}
		}
	}
	JOINT Hips_LeftUpLeg
	{
		OFFSET 0.000000 0.000000 0.000000
		CHANNELS 3 Zrotation Yrotation Xrotation
		JOINT LeftUpLeg
		{
			OFFSET 6.857700 -6.739601 0.312100
			CHANNELS 3 Zrotation Yrotation Xrotation
			JOINT LeftLeg
			{
				OFFSET -0.367590 -34.731552 -4.572400
				CHANNELS 3 Zrotation Yrotation Xrotation
				End Site #name: LeftFoot
				{
					OFFSET 0.367590 -34.656704 -6.067400
				}
			}
		}
	}
	JOINT Hips_RightUpLeg
	{
		OFFSET 0.000000 0.000000 0.000000
		CHANNELS 3 Zrotation Yrotation Xrotation
		JOINT RightUpLeg
		{
			OFFSET -6.876100 -6.733299 0.301000
			CHANNELS 3 Zrotation Yrotation Xrotation
			JOINT RightLeg
			{
				OFFSET 0.347353 -34.795158 -4.515900
				CHANNELS 3 Zrotation Yrotation Xrotation
				End Site #name: RightFoot
				{
					OFFSET -0.347353 -34.589367 -6.070300
				}
			}
		}
	}
}
MOTION
Frames: 12
Frame Time: 0.041667
5.707141 0.886024 1.386155 -4.097929 -9.836305 -0.956996 -0.000000 0.000000 -0.000000 -0.225525 0.615791 4.383828 -0.852010 1.281495 8.797494 0.000000 0.000000 0.000000 -0.870919 1.220480 8.764705 1.427881 -2.197550 3.092099 -0.842782 1.274708 8.716272 3.220220 1.013249 0.346786 -74.307304 -11.247629 26.528354 179.397011 -86.659820 -179.585437 -0.834374 1.232430 8.632105 -3.961339 -1.897289 0.995538 79.099437 -9.409738 4.518612 -175.632188 83.114802 -176.049904 -0.000000 -0.000000 -0.000000 1.220800 0.954615 -20.153250 -0.883478 0.413998 28.663206 0.000000 -0.000000 -0.000000 -7.998279 0.489214 -15.661828 0.284013 -0.789751 18.073345 
5.903844 0.908709 1.410326 -4.077382 -10.029219 -0.947865 -0.000000 0.000000 -0.000000 -0.228547 0.626090 4.357378 -0.836255 1.276587 8.742640 0.000000 0.000000 0.000000 -0.856537 1.212126 8.682626 1.200485 -2.484717 3.116367 -0.827021 1.275952 8.641334 3.190081 0.987537 0.349778 -74.347218 -10.853496 26.340928 179.128250 -86.671152 -179.322231 -0.816546 1.217042 8.578314 -3.889789 -1.881268 0.993685 79.183287 -9.556817 4.280647 -175.569258 83.043826 -175.981944 -0.000000 -0.000000 -0.000000 1.029715 0.922675 -19.974610 -0.879080 0.408180 28.292529 0.000000 -0.000000 -0.000000 -8.138727 0.669269 -15.698776 0.272934 -0.778981 17.859160 
6.083916 0.930680 1.434155 -4.059645 -10.178616 -0.956641 -0.000000 0.000000 -0.000000 -0.230761 0.641338 4.340028 -0.819062 1.275330 8.688078 0.000000 0.000000 0.000000 -0.840006 1.214402 8.605036 1.053928 -2.676363 3.067843 -0.810767 1.281784 8.570300 3.164441 0.968076 0.354345 -74.397667 -10.476805 26.125838 178.970661 -86.693222 -179.165834 -0.800026 1.205903 8.531273 -3.843102 -1.867807 0.999071 79.256336 -9.693036 4.083233 -175.542830 82.945906 -175.948746 -0.000000 -0.000000 -0.000000 0.873420 0.905304 -19.812454 -0.869868 0.415987 27.970979 -0.000000 -0.000000 -0.000000 -8.258734 0.823323 -15.708095 0.259858 -0.770982 17.698212 
6.246163 0.950478 1.454689 -4.045006 -10.259444 -0.976932 -0.000000 0.000000 -0.000000 -0.236984 0.665931 4.348773 -0.799149 1.278162 8.636130 0.000000 0.000000 0.000000 -0.823493 1.216436 8.519473 0.945434 -2.806503 3.049853 -0.793197 1.289423 8.505089 3.139919 0.951015 0.361616 -74.460529 -10.151574 25.906969 178.762799 -86.710819 -178.966247 -0.783778 1.198345 8.484252 -3.799257 -1.844201 1.007596 79.294320 -9.828043 3.911176 -175.540843 82.848750 -175.937545 -0.000000 -0.000000 -0.000000 0.747223 0.903493 -19.669663 -0.861759 0.428913 27.681140 -0.000000 -0.000000 -0.000000 -8.349401 0.957195 -15.708156 0.247462 -0.764272 17.605272 
6.389429 0.968568 1.470083 -4.027603 -10.312929 -1.003507 -0.000000 0.000000 -0.000000 -0.245461 0.691350 4.365981 -0.777216 1.281809 8.593583 0.000000 0.000000 0.000000 -0.805335 1.222957 8.443618 0.886773 -2.886771 3.088453 -0.776302 1.297026 8.449063 3.126613 0.944763 0.371998 -74.541397 -9.874247 25.677970 178.435276 -86.749354 -178.650704 -0.766943 1.192745 8.445857 -3.750012 -1.831173 1.014455 79.301615 -9.963652 3.771910 -175.548890 82.770489 -175.937861 -0.000000 -0.000000 -0.000000 0.636417 0.906437 -19.518789 -0.855559 0.442156 27.398036 -0.000000 -0.000000 -0.000000 -8.420233 1.062533 -15.703488 0.225125 -0.761659 17.568034 
6.508546 0.984755 1.479020 -4.000110 -10.418185 -1.008893 -0.000000 0.000000 -0.000000 -0.253364 0.717825 4.377406 -0.754100 1.286409 8.556600 0.000000 0.000000 0.000000 -0.787717 1.232428 8.380739 0.851384 -2.920686 3.123063 -0.759962 1.306568 8.403209 3.112060 0.940774 0.386739 -74.621796 -9.645914 25.443060 178.085660 -86.784972 -178.312905 -0.750668 1.190594 8.414478 -3.689498 -1.814064 1.022352 79.275347 -10.082159 3.667800 -175.576740 82.693588 -175.957754 -0.000000 -0.000000 -0.000000 0.528710 0.903010 -19.386794 -0.854685 0.449353 27.150945 -0.000000 -0.000000 -0.000000 -8.499384 1.129475 -15.688222 0.242420 -0.768872 17.518283 
6.598130 0.998771 1.481698 -3.964117 -10.538451 -1.002122 -0.000000 0.000000 -0.000000 -0.265706 0.738147 4.352816 -0.729464 1.290285 8.522858 0.000000 0.000000 0.000000 -0.770614 1.243031 8.332050 0.829949 -2.939372 3.147521 -0.743857 1.315312 8.365816 3.102919 0.942140 0.403686 -74.691829 -9.464608 25.239146 177.773854 -86.815425 -178.011166 -0.733733 1.190908 8.388142 -3.632868 -1.804818 1.027557 79.228971 -10.175069 3.594342 -175.620906 82.629844 -175.992890 -0.000000 -0.000000 -0.000000 0.417542 0.892467 -19.274569 -0.860248 0.445714 26.957686 -0.000000 -0.000000 -0.000000 -8.577022 1.165401 -15.665826 0.249529 -0.778591 17.468085 
6.652253 1.010062 1.480487 -3.918485 -10.652776 -0.993065 -0.000000 0.000000 -0.000000 -0.275685 0.750081 4.317074 -0.703049 1.295015 8.492850 0.000000 0.000000 0.000000 -0.753292 1.255412 8.289075 0.825251 -2.936123 3.163531 -0.727093 1.322502 8.333870 3.095980 0.948337 0.420749 -74.737003 -9.322297 25.071656 177.519804 -86.849388 -177.763993 -0.717415 1.194163 8.366293 -3.592436 -1.804372 1.032443 79.160063 -10.255757 3.547419 -175.642633 82.650931 -176.004855 -0.000000 -0.000000 -0.000000 0.315163 0.876315 -19.195907 -0.865965 0.441249 26.825781 -0.000000 -0.000000 -0.000000 -8.656874 1.161449 -15.651295 0.245573 -0.788526 17.436921 
6.664578 1.018244 1.477246 -3.860934 -10.756986 -0.986714 -0.000000 0.000000 -0.000000 -0.281542 0.751417 4.279464 -0.678381 1.297658 8.458854 0.000000 0.000000 0.000000 -0.736330 1.268946 8.249525 0.839630 -2.908756 3.157323 -0.709824 1.329648 8.305813 3.091970 0.956954 0.438118 -74.774770 -9.179348 24.921655 177.210085 -86.905590 -177.462054 -0.701703 1.199939 8.349201 -3.563984 -1.807515 1.038661 79.100336 -10.326242 3.502578 -175.691059 82.659971 -176.041589 -0.000000 -0.000000 -0.000000 0.229932 0.859767 -19.143343 -0.872167 0.432270 26.764783 -0.000000 -0.000000 -0.000000 -8.756163 1.109147 -15.631469 0.235536 -0.790464 17.427797 
6.628250 1.025013 1.477307 -3.765903 -10.849188 -0.976648 0.000000 0.000000 -0.000000 -0.284357 0.745439 4.243686 -0.656702 1.298955 8.425674 0.000000 0.000000 0.000000 -0.720074 1.282795 8.213919 0.877845 -2.864783 3.127242 -0.693726 1.337224 8.283298 3.094923 0.965065 0.454959 -74.791957 -9.057027 24.835157 176.906249 -86.981947 -177.162690 -0.687597 1.207162 8.339167 -3.561971 -1.816039 1.045763 79.046459 -10.379428 3.456384 -175.764400 82.629569 -176.102032 -0.000000 -0.000000 -0.000000 0.169957 0.851994 -19.101777 -0.872022 0.425080 26.763026 -0.000000 -0.000000 -0.000000 -8.851731 1.053231 -15.626764 0.241223 -0.795089 17.437908 
6.535618 1.032840 1.486210 -3.629401 -10.957298 -0.979545 0.000000 0.000000 -0.000000 -0.284428 0.738416 4.209950 -0.641138 1.300335 8.395475 0.000000 0.000000 0.000000 -0.705588 1.296766 8.187625 0.942527 -2.798915 3.069991 -0.680195 1.346080 8.266898 3.088968 0.960730 0.467383 -74.792014 -8.938735 24.787510 176.498813 -87.090154 -176.759780 -0.675254 1.215925 8.338964 -3.615241 -1.831570 1.054684 78.998379 -10.400758 3.435527 -175.831816 82.607448 -176.158658 -0.000000 -0.000000 -0.000000 0.142666 0.864277 -19.076128 -0.868161 0.419019 26.813719 -0.000000 0.000000 -0.000000 -8.935341 0.995829 -15.623925 0.256787 -0.797235 17.470460 
6.382042 1.042417 1.504802 -3.461671 -10.994793 -1.015337 0.000000 0.000000 -0.000000 -0.282184 0.730230 4.182520 -0.631406 1.299792 8.364779 0.000000 0.000000 0.000000 -0.692307 1.310536 8.172792 1.031880 -2.710143 2.978099 -0.669464 1.356848 8.258740 3.089407 0.954358 0.476608 -74.785571 -8.810383 24.782031 175.906836 -87.258190 -176.170679 -0.664222 1.225767 8.348522 -3.676764 -1.843829 1.062256 78.935804 -10.403033 3.451735 -175.906668 82.578845 -176.223362 0.000000 -0.000000 -0.000000 0.144481 0.894776 -19.040927 -0.862049 0.416919 26.891633 -0.000000 0.000000 -0.000000 -8.992859 0.944996 -15.597806 0.272208 -0.796552 17.522172 
